<svg id="Layer_1" data-name="Layer 1" xmlns="http://www.w3.org/2000/svg" viewBox="0 0 374.38 117.9"><defs><style>.cls-1{fill:#b2772b;}.cls-2{fill:#fff;stroke:#595a5c;}.cls-11,.cls-2,.cls-21{stroke-miterlimit:10;}.cls-3{fill:#7f1518;}.cls-4{fill:#551211;}.cls-5{fill:#bd862c;}.cls-6{fill:#88181a;}.cls-7{fill:#fbb042;}.cls-8{fill:#a31e22;}.cls-9{fill:#d3b82a;}.cls-10,.cls-14{fill:#8c7f30;}.cls-11,.cls-21{fill:none;stroke:#8c7f30;}.cls-11{stroke-width:3px;}.cls-12{fill:#877d30;}.cls-13{fill:#88772e;}.cls-14{font-size:13.32px;font-family:MyriadPro-Regular, Myriad Pro;}.cls-15{letter-spacing:-0.08em;}.cls-16{letter-spacing:0.04em;}.cls-17{letter-spacing:-0.04em;}.cls-18{letter-spacing:-0.04em;}.cls-19{letter-spacing:0em;}.cls-20{letter-spacing:-0.02em;}.cls-21{stroke-width:2px;}</style></defs><path class="cls-1" d="M61,85.43l.24-.63.85-.17L62,84.17l1-.69-.12-1.32.79-1.6L63,80.38l-1.28-.23-.61-1.26L60.22,80l-1.53.46-1.52-1.61L55.89,80l-1.89.4-.67-.51-.3-.75-1.34.4v.4l-1.4.23-2.69-.28v-.52l-1.82.06v.51l-2.93.23-.18-1-2.92-.06-.25.63L38,80.3l-1.16.17-.06-.63H35.6V79H33.21l.06.92h-1l-1.46-.23L30.38,79l-2,.23.12.46-1.4.17-.36.23-1.27-.2V79l-2.07.11.24.75-1.83-.18-.24-.63-1.34.06-.61.92-1.28.06.67.57-1.28.4.61.29.61.29.3,1,.49,1a2.73,2.73,0,0,1,.49.63c.06.23.42.35.49.58a.79.79,0,0,0,.3.4l.24.29h.8l38.81.23Z" transform="translate(-11.49 -10.99)"/><path class="cls-2" d="M22.08,100.41" transform="translate(-11.49 -10.99)"/><polygon class="cls-3" points="11.94 66.61 46.86 66.83 46.58 65.77 45.59 65.84 45.31 64.65 44.18 64.72 44.53 63.67 43.19 63.81 43.47 62.83 16.67 62.9 16.6 63.67 14.55 63.53 14.55 65.21 13.42 64.86 13.14 65.91 12.29 65.91 11.86 65.91 12.08 66.26 11.94 66.61"/><polyline class="cls-4" points="19.82 60.94 39.73 61.22 39.69 59.7 38.52 59.7 38.66 58.12 21.05 58.19 20.95 59.42 19.73 59.63 19.96 62.12"/><polygon class="cls-5" points="36.54 57.55 36.58 56.75 37.63 56.75 37.89 55.77 38.86 55.66 38.86 54.63 40.02 54.44 40.06 52.55 41.14 52.4 41.37 51.46 42.23 51.34 42.53 51.15 42.46 45.86 41.37 46.01 41.26 43.66 37.85 43.85 37.82 42.57 36.54 42.6 36.58 41.55 35.46 41.47 35.34 39.28 36.43 39.47 36.54 38.26 37.71 38.29 37.74 33.87 36.62 33.91 36.51 32.69 34.3 32.73 34.26 24.13 33.17 24.06 33.06 14.37 31.88 14.3 31.88 4.58 33.03 4.5 33.11 1.17 31.8 1.17 31.76 0 26.97 0.11 27.04 1.32 25.92 1.29 26 4.5 27.23 4.58 27.2 14.68 25.88 14.64 25.92 26.1 24.46 26.06 24.46 32.73 23.6 32.73 23.49 33.56 23.34 33.83 21.14 33.83 21.17 38.07 23.53 38.14 23.57 41.51 22.37 41.43 22.44 42.38 20.98 42.23 21.02 43.55 18.77 43.44 18.77 45.78 17.73 45.78 17.8 46.69 16.54 46.58 16.57 50.13 17.65 50.17 17.65 51.3 18.77 51.34 18.92 54.71 20 54.75 20 55.54 22.48 55.54 22.48 56.75 23.6 56.68 23.6 57.89 36.54 58 36.54 57.55"/><path class="cls-6" d="M23.59,109.7c1.87-2.12-.89-5.36,0-8.51,1-3.47,5.82-4.88,10.72-6.3,3.6-1,8.22-2.39,13.79-.85,2.58.71,7.64,2.11,9.36,6.12,1.81,4.22-1.29,8.46.68,9.88,1.31.94,3.72-.17,4.77-.85a7.2,7.2,0,0,0,2.89-4.09c.68-2.45-.44-3.58.17-7.66a9.66,9.66,0,0,1,.34-1.7c.83-2.63,2.48-3.11,3.58-5.45.64-1.36,1.15-3.48.51-3.91S67.73,88,63.08,90.12c-.66.3-2.55,1.12-3.06.51-.37-.42.21-1.24-.17-1.7-.54-.63-2.35.09-2.56.17-5.48,2.11-34.3-4.69-36.08,0-.3.78.28,1.52-.17,1.87-1.46,1.12-7.82-6.28-9.19-5.27-.89.65-.15,5.19,2.55,7.66.81.74,2,1.52,2.38,3.06a4.26,4.26,0,0,1-.17,2.21c-.36,1.27-1.78,6.19-.17,9.19,1,1.84,3.3,3.28,5.28,2.9A3.4,3.4,0,0,0,23.59,109.7Z" transform="translate(-11.49 -10.99)"/><path class="cls-7" d="M90.74,55" transform="translate(-11.49 -10.99)"/><polygon class="cls-8" points="22.29 41.38 37.71 41.53 37.77 40.55 38.77 40.55 39.05 37.83 37.71 37.88 37.66 36.84 35.14 36.55 35.08 29.84 33.8 29.84 33.8 21.7 32.51 21.55 32.51 5.56 33.97 5.56 33.85 1.81 32.46 1.72 32.46 0.53 28.16 0.73 28.1 1.81 26.65 1.91 26.81 5.71 27.43 5.76 26.98 21.55 25.64 21.55 25.25 29.69 23.91 29.69 23.35 36.65 20.05 36.6 20.16 41.28 22.29 41.38"/><polygon class="cls-9" points="18.71 44.18 41.69 44.52 42.2 48.78 16.67 47.58 18.71 44.18"/><polygon class="cls-9" points="18.64 52.8 40.64 54.44 38.1 56.75 22.06 55.54 18.64 52.8"/><path class="cls-10" d="M81.89,58.68s5.45-2.64,6.47-2.55,15.58.08,15.58.08L104,54.6l-8.93-3.24L82,54l-8.17,6.47S69,69.66,69.21,70s1.7,8.77,1.7,8.77,7.58,3.49,7.83,3.49,9.79-2.05,9.79-2.05l12.17-11,8.94-12.17,10.55-16.17-1.62,11.92-.76,28.68L124.7,72l9-15.24L149,35.26l9-4.54.32-1.32-4.47.09-5.15,4L137.72,46.6l-4.66,6.88L124.28,70l1.25-16.55-.25-17.17,2.74-6-7.47,7.66L106.77,57.85,95,72.47l-8.81,6.25-3.77,1.22-4.27.19-4.6-3.07L72,73.43l.64-5.94L79.51,60Z" transform="translate(-11.49 -10.99)"/><path class="cls-11" d="M141.36,81.45a23.9,23.9,0,0,1-4.21,1.1c-.13-.12-3.49-1.57-3.49-1.57l-1.36-2.43.89-5.78,6.47-6L145,64.26l6,.25,1.57,2,.13,4.17-1.36,2.13,5,.85-.17,1-3.66-.43h-1.45L148,76.43l-2.21,2.12Z" transform="translate(-11.49 -10.99)"/><path class="cls-12" d="M254.06,79.19c-.42.09-6.72,4.26-6.72,4.26l-2.13-.26L255.94,58.6l7.66-18.3,6.12-5.53L245,34.34l-4.17,3.92s-.76,5.53-.42,6,3.57,3.57,3.74,3.83,6.64-.34,6.64-.34,3.4-4.34,3.4-4.77V37.4l3.15.26s1.45,3.66,1.53,4.08-2.21,5.2-2.21,5.2l-6.21,3.15-5.79-.18-2.81-2.12-2.38-2.64-.25-7.66,7.65-6.3,23.83.17,1.11-1.27,2.21.08,1.79-1.7L273,34.17c-.17.34-9,20.94-9.19,21.36S256.28,72,256.28,72l-2.73,4.6L253,78l2.22-.85,8.51-10.3,14-22,10.13-12.42s7.06-2.73,6.8-2.3-9,8.68-9,8.68L277.13,50l-8.68,13.19L259.68,74Z" transform="translate(-11.49 -10.99)"/><path class="cls-12" d="M277.13,82.38l-2.39-4.47,4.73-8.42-5.66,3.66-.51-.34,6.13-6.72,8.46-2.56-5.23,9.28s-3.06,4.51-3.06,4.76a14.35,14.35,0,0,0-.17,2.17,18.5,18.5,0,0,0,2.76.09c.34-.13,14.17-13.06,14.17-13.06l10-12.34,14.64-15,13.45-7.32L317.81,47.62,302.66,66.51l-4.77,8.68.17,5.11,3.75-.68,14.81-10.56,15.32-19.4,15-13.11,9.2-4.08L340.79,45.74,330.74,57.83l-9,12.77-2.55,7.49,1.53,3.06,7.66-4.26L335,71.45l-9.53,9L319,82.34,315.77,82l-1-7.83-2.55.17-7,5.45-8.68,2.38-2.89-.85,1.19-11.23-5.62,5.44-5.27,4.26-3.58,2Z" transform="translate(-11.49 -10.99)"/><ellipse class="cls-12" cx="291.28" cy="55.17" rx="3.32" ry="2.33" transform="translate(74.87 258.42) rotate(-57)"/><path class="cls-13" d="M75.68,86.51l252.77,1Z" transform="translate(-11.49 -10.99)"/><text class="cls-14" transform="translate(84.38 89.75)">PH<tspan class="cls-15" x="15.77" y="0">A</tspan><tspan class="cls-16" x="22.89" y="0">T</tspan><tspan x="30.02" y="0">THA</tspan><tspan class="cls-17" x="53.47" y="0">L</tspan><tspan x="59.27" y="0">UNG </tspan><tspan class="cls-18" x="88.07" y="0"> </tspan><tspan x="90.35" y="0">TECHNI</tspan><tspan class="cls-19" x="131.87" y="0">C</tspan><tspan x="139.65" y="0">AL </tspan><tspan class="cls-20" x="156.91" y="0">C</tspan><tspan x="164.35" y="0">OLLEGE</tspan></text><path class="cls-10" d="M34.36,102.31s.61-.5.73-.48,1.74,0,1.74,0v-.31l-1-.61-1.47.5-.92,1.22s-.53,1.74-.51,1.8.19,1.66.19,1.66.85.66.88.66l1.09-.38,1.37-2.08,1-2.3L38.66,99l-.18,2.25-.09,5.43.78-1.81,1-2.88,1.71-4.06,1-.86,0-.25-.5,0-.58.76L40.63,100l-.53,1.3-1,3.12.14-3.13,0-3.25.31-1.13-.84,1.45-1.55,3.77-1.32,2.76-1,1.19-.43.22-.48,0-.51-.58-.17-.69.07-1.12.77-1.41Z" transform="translate(-11.49 -10.99)"/><path class="cls-12" d="M43.29,111.27c-.08,0-1.21.78-1.21.78l-.38,0,1.93-4.48L45,104.2l1.1-1-4.45-.08-.75.72a6,6,0,0,0-.07,1.09c.06.1.64.65.67.7a9.36,9.36,0,0,0,1.2-.06,8.19,8.19,0,0,0,.61-.87v-1l.57,0s.26.66.27.74a7,7,0,0,1-.39.94l-1.12.58-1,0-.5-.39-.43-.48-.05-1.39L42,102.54l4.3,0,.2-.23h.39l.33-.3-.51,1c0,.06-1.63,3.81-1.66,3.89s-1.36,3-1.36,3l-.49.84-.09.24.4-.15L45,109l2.53-4,1.82-2.26a11.23,11.23,0,0,1,1.23-.42c0,.08-1.62,1.58-1.62,1.58l-1.55,2-1.57,2.4-1.58,2Z" transform="translate(-11.49 -10.99)"/><path class="cls-10" d="M172.36,72.51l-1,.16s-6.93,9.7-7.05,9.8-4.31-.23-4.31-.23l1.85-4.56L167.38,70l-.09-3.45-1.92.06-6.06,7-1.09-1.47,5.46-5.75,3-1.88.64-1,3.1.22.92,2.78h1a4.48,4.48,0,0,0,0,1.08c.1.13,1.06,0,1.06,0l2.33-3h2.61l.16,3.23s-3.12,3-3.19,3.06.23,4.21.23,4.21l2.74.48,1.79-1,.41,1.15-.17,1.07-7-.17,0-2Z" transform="translate(-11.49 -10.99)"/><line class="cls-21" x1="184.45" y1="117.65" x2="184.45" y2="117.9"/><path class="cls-10" d="M190.59,72.13l-3.42,5.68-2.57,2.87-1.81.16s-2.15-2-2.13-2.08.27-4.75.27-4.75l2.62-5.4L186,66.44,189.58,68l-2.4.35s-2.94,3.91-3,4-1.35,3.83-1.38,4,.22,1.74.22,1.74l1.29.36,4.1-4.87,2-4.87,0-1.43,2.34.91,0,7.84,1.52-1.62h.38L194,77l-.31,2.78.07.51-.64.08-2-.86Z" transform="translate(-11.49 -10.99)"/></svg>