<svg id="Layer_1" data-name="Layer 1" xmlns="http://www.w3.org/2000/svg" viewBox="0 0 73.79 95.08"><defs><style>.cls-1{fill:#fbb040;}.cls-2,.cls-3{fill:#fff;}.cls-2{stroke:#58595b;stroke-miterlimit:10;}</style></defs><path class="cls-1" d="M71.42,67.16l.24-.63.85-.17-.06-.46,1-.69-.12-1.32.79-1.6-.67-.18-1.28-.23-.61-1.26-.91,1.09-1.53.46-1.52-1.61-1.28,1.15-1.89.4-.67-.51-.3-.75-1.34.4v.4l-1.4.23-2.69-.28v-.52l-1.82.06v.51l-2.93.23-.18-1-2.92-.06-.25.63-1.52.58-1.16.17-.06-.63-1.16,0v-.8H43.64l.06.92h-1l-1.46-.23-.43-.75-2,.23.12.46-1.4.17-.36.23L35.9,61.6v-.86l-2.07.11.24.75-1.83-.18L32,60.79l-1.34.06-.61.92-1.28.06.67.57-1.28.4.61.29.61.29.3,1,.49,1a2.34,2.34,0,0,1,.49.63c.06.23.42.35.49.58a.85.85,0,0,0,.3.4l.24.29.8,0,38.81.23Z" transform="translate(-15.04 -3.2)"/><path class="cls-2" d="M34.38,60.87" transform="translate(-15.04 -3.2)"/><rect class="cls-3" y="65.59" width="73.79" height="29.49"/><polygon class="cls-1" points="18.14 56.3 53.06 56.52 52.78 55.46 51.79 55.53 51.51 54.34 50.38 54.41 50.73 53.36 49.39 53.5 49.67 52.52 22.87 52.59 22.8 53.36 20.75 53.22 20.75 54.9 19.62 54.55 19.34 55.6 18.49 55.6 18.06 55.6 18.28 55.95 18.14 56.3"/><polyline class="cls-1" points="25.26 51.01 45.17 51.29 45.12 49.77 43.95 49.77 44.09 48.19 26.48 48.26 26.39 49.5 25.17 49.7 25.4 52.19"/><polygon class="cls-1" points="41.39 45.64 41.42 45.01 42.35 45.01 42.58 44.23 43.44 44.14 43.44 43.33 44.47 43.18 44.5 41.68 45.46 41.56 45.66 40.81 46.42 40.72 46.69 40.57 46.62 36.37 45.66 36.49 45.56 34.63 42.55 34.78 42.52 33.76 41.39 33.79 41.42 32.95 40.43 32.89 40.33 31.15 41.29 31.3 41.39 30.34 42.42 30.37 42.45 26.86 41.46 26.89 41.36 25.93 39.41 25.96 39.37 19.14 38.41 19.08 38.31 11.4 37.26 11.34 37.26 3.63 38.28 3.57 38.35 0.93 37.19 0.93 37.16 0 32.92 0.09 32.98 1.05 31.99 1.02 32.06 3.57 33.15 3.63 33.12 11.64 31.96 11.61 31.99 20.7 30.7 20.67 30.7 25.96 29.94 25.96 29.84 26.62 29.71 26.83 27.76 26.83 27.79 30.19 29.88 30.25 29.91 32.92 28.85 32.86 28.91 33.61 27.62 33.49 27.66 34.54 25.67 34.45 25.67 36.31 24.75 36.31 24.81 37.03 23.69 36.94 23.72 39.76 24.68 39.79 24.68 40.69 25.67 40.72 25.8 43.39 26.76 43.42 26.76 44.05 28.95 44.05 28.95 45.01 29.94 44.95 29.94 45.91 41.39 46 41.39 45.64"/><path class="cls-1" d="M32.19,90.45c1.87-2.12-.89-5.36,0-8.51,1-3.47,5.82-4.88,10.72-6.3,3.6-1,8.22-2.39,13.79-.85,2.58.71,7.64,2.11,9.36,6.12,1.81,4.22-1.29,8.46.68,9.88,1.31.94,3.72-.17,4.77-.85a7.13,7.13,0,0,0,2.89-4.09c.68-2.45-.44-3.58.17-7.66a10.52,10.52,0,0,1,.34-1.7c.83-2.63,2.48-3.11,3.58-5.45.64-1.36,1.15-3.48.51-3.91s-2.67,1.66-7.32,3.74c-.66.3-2.55,1.12-3.06.51-.37-.42.21-1.24-.17-1.7-.54-.63-2.35.09-2.56.17-5.48,2.11-34.3-4.69-36.08,0-.3.78.28,1.52-.17,1.87-1.46,1.12-7.82-6.28-9.19-5.27-.89.65-.15,5.19,2.55,7.66.81.74,2.05,1.52,2.38,3.06a4.26,4.26,0,0,1-.17,2.21c-.36,1.27-1.78,6.19-.17,9.19,1,1.84,3.3,3.28,5.28,2.9A3.39,3.39,0,0,0,32.19,90.45Z" transform="translate(-15.04 -3.2)"/></svg>