<svg width="750" height="140" xmlns="http://www.w3.org/2000/svg" xmlns:xlink="http://www.w3.org/1999/xlink" overflow="hidden"><defs><clipPath id="clip0"><rect x="237" y="250" width="750" height="140"/></clipPath></defs><g clip-path="url(#clip0)" transform="translate(-237 -250)"><path d="M237 303.093 291.621 303.093 308.5 250 325.379 303.093 380 303.093 335.81 335.906 352.689 389 308.5 356.186 264.311 389 281.19 335.906Z" fill="#FFC107" fill-rule="evenodd"/><path d="M389 303.093 443.24 303.093 460 250 476.76 303.093 531 303.093 487.119 335.906 503.88 389 460 356.186 416.12 389 432.881 335.906Z" fill="#FFC107" fill-rule="evenodd"/><path d="M540 303.093 594.622 303.093 611.5 250 628.378 303.093 683 303.093 638.81 335.906 655.689 389 611.5 356.186 567.311 389 584.19 335.906Z" fill="#F5F1F1" fill-rule="evenodd"/><path d="M692 303.093 746.24 303.093 763 250 779.76 303.093 834 303.093 790.119 335.906 806.88 389 763 356.186 719.12 389 735.881 335.906Z" fill="#F5F1F1" fill-rule="evenodd"/><path d="M843 303.093 897.622 303.093 914.5 250 931.378 303.093 986 303.093 941.81 335.906 958.689 389 914.5 356.186 870.311 389 887.19 335.906Z" fill="#F5F1F1" fill-rule="evenodd"/></g></svg>